HIERARCHY
ROOT joint_Root
{
	OFFSET 0.0 0.0 0.0
	CHANNELS 6 Xposition Yposition Zposition Zrotation Xrotation Yrotation 
	JOINT Hips
	{
		OFFSET -17.1583 93.1646 452.98
		CHANNELS 6 Xposition Yposition Zposition Zrotation Xrotation Yrotation 
		JOINT Spine
		{
			OFFSET 15.7357 0.0 0.0
			CHANNELS 6 Xposition Yposition Zposition Zrotation Xrotation Yrotation 
			JOINT Chest
			{
				OFFSET 8.98455 -0.406207 0.0
				CHANNELS 6 Xposition Yposition Zposition Zrotation Xrotation Yrotation 
				JOINT Neck
				{
					OFFSET 16.3773 0.0 0.0
					CHANNELS 6 Xposition Yposition Zposition Zrotation Xrotation Yrotation 
					JOINT Head
					{
						OFFSET 6.45672 0.0 0.0
						CHANNELS 6 Xposition Yposition Zposition Zrotation Xrotation Yrotation 
						End Site
						{
							OFFSET 0.0 0.0 0.0
						}
					}
				}
				JOINT Shoulder_L
				{
					OFFSET 12.9942 -0.242716 4.98039
					CHANNELS 6 Xposition Yposition Zposition Zrotation Xrotation Yrotation 
					JOINT UpperArm_L
					{
						OFFSET 5.34809 0.0 0.0
						CHANNELS 6 Xposition Yposition Zposition Zrotation Xrotation Yrotation 
						JOINT LowerArm_L
						{
							OFFSET 24.3286 1.87007e-05 0.0
							CHANNELS 6 Xposition Yposition Zposition Zrotation Xrotation Yrotation 
							JOINT Hand_L
							{
								OFFSET 22.2916 0.0 0.0
								CHANNELS 6 Xposition Yposition Zposition Zrotation Xrotation Yrotation 
								End Site
								{
									OFFSET 0.0 0.0 0.0
								}
							}
						}
					}
				}
				JOINT Shoulder_R
				{
					OFFSET 12.9945 -0.242716 -4.98039
					CHANNELS 6 Xposition Yposition Zposition Zrotation Xrotation Yrotation 
					JOINT UpperArm_R
					{
						OFFSET -5.34813 0.0 0.0
						CHANNELS 6 Xposition Yposition Zposition Zrotation Xrotation Yrotation 
						JOINT LowerArm_R
						{
							OFFSET -24.3289 0.000322201 0.0
							CHANNELS 6 Xposition Yposition Zposition Zrotation Xrotation Yrotation 
							JOINT Hand_R
							{
								OFFSET -22.2915 -0.000108084 0.0
								CHANNELS 6 Xposition Yposition Zposition Zrotation Xrotation Yrotation 
								End Site
								{
									OFFSET 0.0 0.0 0.0
								}
							}
						}
					}
				}
			}
		}
		JOINT UpperLeg_L
		{
			OFFSET -2.19248 -6.46944 0.0
			CHANNELS 6 Xposition Yposition Zposition Zrotation Xrotation Yrotation 
			JOINT LowerLeg_L
			{
				OFFSET 39.0811 0.0 -1.23785e-05
				CHANNELS 6 Xposition Yposition Zposition Zrotation Xrotation Yrotation 
				JOINT Foot_L
				{
					OFFSET 40.9854 0.0 -1.26872e-05
					CHANNELS 6 Xposition Yposition Zposition Zrotation Xrotation Yrotation 
					JOINT Toes_L
					{
						OFFSET 11.7543 0.0 0.0
						CHANNELS 6 Xposition Yposition Zposition Zrotation Xrotation Yrotation 
						End Site
						{
							OFFSET 0.0 0.0 0.0
						}
					}
				}
			}
		}
		JOINT UpperLeg_R
		{
			OFFSET -2.19251 6.46944 0.0
			CHANNELS 6 Xposition Yposition Zposition Zrotation Xrotation Yrotation 
			JOINT LowerLeg_R
			{
				OFFSET -39.0811 -0.00228153 -0.0401928
				CHANNELS 6 Xposition Yposition Zposition Zrotation Xrotation Yrotation 
				JOINT Foot_R
				{
					OFFSET -40.9854 0.0 0.0
					CHANNELS 6 Xposition Yposition Zposition Zrotation Xrotation Yrotation 
					JOINT Toes_R
					{
						OFFSET -11.7543 0.0 0.0
						CHANNELS 6 Xposition Yposition Zposition Zrotation Xrotation Yrotation 
						End Site
						{
							OFFSET 0.0 0.0 0.0
						}
					}
				}
			}
		}
	}
}
MOTION
Frames:	4
Frame Time:	0.0333333
0.000000 0.000000 0.000000 0.000000 0.000000 -0.000000 155.820000 93.841200 227.604000 -84.838400 39.795700 172.505000 15.735700 0.000005 -0.000001 119.823000 86.865000 -118.352000 8.984550 -0.406207 -0.000000 -2.364230 2.987290 3.003390 16.377300 -0.000001 -0.000001 0.972116 10.136400 3.663910 6.456720 -0.000001 -0.000000 2.124620 16.404500 3.026720 12.994200 -0.242716 4.980390 -93.177200 7.638020 -67.332200 5.348090 -0.000007 -0.000001 -51.866900 -8.449560 16.548500 24.328600 0.000019 0.000005 3.705250 20.806400 -10.344800 22.291600 -0.000001 0.000005 -10.924200 5.160890 3.676380 12.994500 -0.242716 -4.980390 89.350800 1.983160 -71.871000 -5.348130 -0.000001 -0.000004 -59.456100 4.869680 -17.741300 -24.328900 0.000322 -0.000009 -4.379560 -5.274150 -39.777100 -22.291500 -0.000108 -0.000004 12.729100 5.381430 -2.341890 -2.192480 -6.469440 -0.000000 -179.388000 -4.025640 -29.598000 39.081100 -0.000007 -0.000012 0.198068 -0.106552 61.720600 40.985400 -0.000006 -0.000013 -4.634420 5.600880 -49.245900 11.754300 -0.000000 0.000003 0.001328 0.026578 -15.498700 -2.192510 6.469440 -0.000001 177.385000 13.384700 176.315000 -39.081100 -0.002282 -0.040193 -0.021457 0.067458 20.168600 -40.985400 0.000008 0.000006 -13.984800 5.057500 -58.818300 -11.754300 -0.000006 -0.000006 0.001603 0.033798 -15.202100
0.000000 0.000000 0.000000 0.000000 0.000000 -0.000000 157.757000 94.131900 225.518000 -85.517600 38.792100 172.157000 15.735700 0.000005 -0.000001 128.793000 86.501300 -127.501000 8.984550 -0.406207 -0.000000 -2.361620 4.268430 2.673820 16.377300 -0.000001 -0.000001 0.259171 9.569690 3.493160 6.456720 -0.000001 -0.000000 1.596650 14.792500 2.436580 12.994200 -0.242716 4.980390 -92.823300 6.567530 -66.674700 5.348090 -0.000007 -0.000001 -46.554900 -13.456300 20.256000 24.328600 0.000019 0.000005 2.135090 9.658030 -12.539800 22.291600 -0.000001 0.000005 -7.550830 5.094770 5.198390 12.994500 -0.242716 -4.980390 89.624000 1.174280 -72.247400 -5.348130 -0.000001 -0.000004 -58.737600 2.985900 -20.244100 -24.328900 0.000322 -0.000009 -6.214200 -6.105530 -45.662400 -22.291500 -0.000108 -0.000004 12.261600 5.418300 -3.544040 -2.192480 -6.469440 -0.000000 178.306000 -4.820370 -32.053600 39.081100 -0.000007 -0.000012 0.126752 -0.092206 53.964800 40.985400 -0.000006 -0.000013 -5.456580 5.298630 -53.047100 11.754300 -0.000000 0.000003 0.001116 0.021575 -15.701700 -2.192510 6.469440 -0.000001 176.637000 15.964100 178.482000 -39.081100 -0.002282 -0.040193 -0.003073 0.019815 17.894800 -40.985400 0.000008 0.000006 -14.014800 6.175630 -56.414100 -11.754300 -0.000006 -0.000006 -0.001635 -0.024045 -17.550800
0.000000 0.000000 0.000000 0.000000 0.000000 -0.000000 159.849000 94.038200 223.379000 -85.489800 37.215400 171.682000 15.735700 0.000005 -0.000001 131.995000 86.241000 -130.616000 8.984550 -0.406207 -0.000000 -2.239330 4.908250 2.854490 16.377300 -0.000001 -0.000001 -0.407228 9.122090 3.098760 6.456720 -0.000001 -0.000000 1.369700 13.575900 1.713540 12.994200 -0.242716 4.980390 -92.497400 5.766350 -66.533900 5.348090 -0.000007 -0.000001 -41.284200 -18.917700 23.331400 24.328600 0.000019 0.000005 1.323130 5.293570 -14.058200 22.291600 -0.000001 0.000005 -0.517071 5.052930 6.155370 12.994500 -0.242716 -4.980390 89.861500 0.444165 -72.684700 -5.348130 -0.000001 -0.000004 -58.432200 0.865353 -22.375700 -24.328900 0.000322 -0.000009 -7.233730 -5.963840 -50.689200 -22.291500 -0.000108 -0.000004 11.358400 5.415540 -3.449470 -2.192480 -6.469440 -0.000000 176.652000 -5.331220 -32.712900 39.081100 -0.000007 -0.000012 0.057933 -0.061120 43.465200 40.985400 -0.000006 -0.000013 -4.509850 3.785030 -55.283600 11.754300 -0.000000 0.000003 0.001191 0.023295 -15.631800 -2.192510 6.469440 -0.000001 176.595000 17.953100 -179.194000 -39.081100 -0.002282 -0.040193 0.003854 -0.001787 16.408400 -40.985400 0.000008 0.000006 -13.525500 6.410370 -55.146400 -11.754300 -0.000006 -0.000006 -0.006595 -0.076148 -19.672700
0.000000 0.000000 0.000000 0.000000 0.000000 -0.000000 162.110000 93.522000 221.088000 -85.064700 35.773600 170.960000 15.735700 0.000005 -0.000001 135.292000 86.096900 -133.744000 8.984550 -0.406207 -0.000000 -2.349740 5.409640 3.208630 16.377300 -0.000001 -0.000001 -1.031950 8.831200 2.676750 6.456720 -0.000001 -0.000000 1.273180 12.661600 1.031110 12.994200 -0.242716 4.980390 -92.325600 5.438670 -66.805700 5.348090 -0.000007 -0.000001 -36.521300 -22.893400 25.519000 24.328600 0.000019 0.000005 0.857636 3.451930 -13.956500 22.291600 -0.000001 0.000005 11.321000 5.015270 6.953600 12.994500 -0.242716 -4.980390 90.015000 -0.049159 -72.998300 -5.348130 -0.000001 -0.000004 -58.233000 -0.426573 -23.808000 -24.328900 0.000322 -0.000009 -8.247520 -5.868900 -54.793400 -22.291500 -0.000108 -0.000004 11.739600 5.415310 -3.439620 -2.192480 -6.469440 -0.000000 175.252000 -6.418660 -31.994900 39.081100 -0.000007 -0.000012 0.020576 -0.034471 30.832100 40.985400 -0.000006 -0.000013 -3.182510 1.043850 -56.370400 11.754300 -0.000000 0.000003 0.001043 0.019944 -15.767800 -2.192510 6.469440 -0.000001 177.165000 17.954400 -177.579000 -39.081100 -0.002282 -0.040193 0.001562 0.005954 16.515000 -40.985400 0.000008 0.000006 -13.297300 5.142080 -55.364300 -11.754300 -0.000006 -0.000006 -0.014087 -0.131990 -21.956900
